<svg width="26" height="26" viewBox="0 0 26 26" fill="none" xmlns="http://www.w3.org/2000/svg">
<path d="M6.33346 10.3332H10.3335V6.33322L5.6668 1.66655C7.15964 0.953585 8.8368 0.720962 10.4673 1.00072C12.0979 1.28047 13.6016 2.05884 14.7714 3.22865C15.9412 4.39846 16.7195 5.90216 16.9993 7.53269C17.2791 9.16322 17.0464 10.8404 16.3335 12.3332L24.3335 20.3332C24.8639 20.8637 25.1619 21.5831 25.1619 22.3332C25.1619 23.0834 24.8639 23.8028 24.3335 24.3332C23.803 24.8637 23.0836 25.1616 22.3335 25.1616C21.5833 25.1616 20.8639 24.8637 20.3335 24.3332L12.3335 16.3332C10.8406 17.0462 9.16346 17.2788 7.53293 16.9991C5.9024 16.7193 4.3987 15.9409 3.22889 14.7711C2.05909 13.6013 1.28072 12.0976 1.00096 10.4671C0.721206 8.83655 0.953829 7.15939 1.6668 5.66655L6.33346 10.3332Z" stroke="#E0E4FB" stroke-linecap="round" stroke-linejoin="round"/>
</svg>
